<svg id="Component_2_1" data-name="Component 2 – 1" xmlns="http://www.w3.org/2000/svg" width="126.111" height="17.336" viewBox="0 0 126.111 17.336">
  <path id="Icon_metro-star-full" data-name="Icon metro-star-full" d="M20.681,9.262l-6.257-.909-2.8-5.67-2.8,5.67-6.257.909L7.1,13.675,6.03,19.907l5.6-2.942,5.6,2.942-1.069-6.232,4.528-4.413Z" transform="translate(-2.571 -2.683)" fill="#cb48f9"/>
  <path id="Icon_metro-star-full-2" data-name="Icon metro-star-full" d="M20.681,9.262l-6.257-.909-2.8-5.67-2.8,5.67-6.257.909L7.1,13.675,6.03,19.907l5.6-2.942,5.6,2.942-1.069-6.232,4.528-4.413Z" transform="translate(24.429 -2.571)" fill="#cb48f9"/>
  <path id="Icon_metro-star-full-3" data-name="Icon metro-star-full" d="M20.681,9.262l-6.257-.909-2.8-5.67-2.8,5.67-6.257.909L7.1,13.675,6.03,19.907l5.6-2.942,5.6,2.942-1.069-6.232,4.528-4.413Z" transform="translate(51.429 -2.571)" fill="#cb48f9"/>
  <path id="Icon_metro-star-full-4" data-name="Icon metro-star-full" d="M20.681,9.262l-6.257-.909-2.8-5.67-2.8,5.67-6.257.909L7.1,13.675,6.03,19.907l5.6-2.942,5.6,2.942-1.069-6.232,4.528-4.413Z" transform="translate(78.429 -2.571)" fill="#cb48f9"/>
  <path id="Icon_metro-star-full-5" data-name="Icon metro-star-full" d="M20.681,9.262l-6.257-.909-2.8-5.67-2.8,5.67-6.257.909L7.1,13.675,6.03,19.907l5.6-2.942,5.6,2.942-1.069-6.232,4.528-4.413Z" transform="translate(105.429 -2.571)" fill="#cb48f9"/>
</svg>
