<svg id="Layer_1" data-name="Layer 1" xmlns="http://www.w3.org/2000/svg" viewBox="0 0 903.89 228.85"><defs><style>.cls-1{fill:#aaa;}.cls-2{isolation:isolate;}.cls-3{fill:#fff;}</style></defs><path id="bg" class="cls-1" d="M228.85,190.71a38.25,38.25,0,0,1-38.14,38.14H38.14A38.25,38.25,0,0,1,0,190.71V38.14A38.25,38.25,0,0,1,38.14,0H190.71a38.25,38.25,0,0,1,38.14,38.14Z"/><g id="B" class="cls-2"><path class="cls-3" d="M62.19,49.73h64.88q17.94,0,28.79,8.23c7.22,5.5,10.84,13.76,10.84,24.87q0,10.1-4.93,17.27a31.77,31.77,0,0,1-14.14,11.15v.37q12.35,2.64,18.7,11.67c4.23,6.06,6.36,13.61,6.36,22.74a38,38,0,0,1-2.81,14.65,29.56,29.56,0,0,1-8.78,11.78,45,45,0,0,1-15.34,7.86,75.33,75.33,0,0,1-22.25,2.91H62.19V49.73Zm23.37,55.91H123.7c5.61,0,10.28-1.57,14-4.79s5.61-7.78,5.61-13.76c0-6.73-1.68-11.48-5.05-14.21s-8.22-4.11-14.58-4.11H85.56v36.87Zm0,58.52h41.32c7.1,0,12.64-1.83,16.53-5.53s5.91-8.9,5.91-15.63-1.95-11.67-5.91-15.26-9.43-5.31-16.53-5.31H85.56Z"/></g><path class="cls-1" d="M278.84,164.93V57.56h40.28q12.31,0,19.74,3.26a25.4,25.4,0,0,1,11.65,10A26.55,26.55,0,0,1,354.72,85,24.33,24.33,0,0,1,351,98a26.63,26.63,0,0,1-11.28,9.82q9.75,2.85,15,9.74a26.1,26.1,0,0,1,5.24,16.26,31.26,31.26,0,0,1-3.19,14,27.15,27.15,0,0,1-7.87,10,33,33,0,0,1-11.76,5.31,71.28,71.28,0,0,1-17.32,1.79Zm14.21-62.25h23.22q9.45,0,13.55-1.25A15,15,0,0,0,338,96.09a15.42,15.42,0,0,0,2.75-9.38,17.26,17.26,0,0,0-2.56-9.41,13,13,0,0,0-7.33-5.57q-4.75-1.5-16.33-1.5H293.05Zm0,49.58h26.73a61.92,61.92,0,0,0,9.67-.51,22.94,22.94,0,0,0,8.2-2.93,15.38,15.38,0,0,0,5.42-6,18.63,18.63,0,0,0,2.13-9,17.84,17.84,0,0,0-3.08-10.44,16.26,16.26,0,0,0-8.53-6.23q-5.46-1.78-15.71-1.79H293.05Z"/><path class="cls-1" d="M372.88,126q0-21.6,12-32,10-8.64,24.47-8.65,16,0,26.22,10.51t10.18,29q0,15-4.51,23.63a31.86,31.86,0,0,1-13.11,13.36,38.08,38.08,0,0,1-18.78,4.76q-16.33,0-26.41-10.47T372.88,126Zm13.55,0q0,14.94,6.52,22.38a21.71,21.71,0,0,0,32.74,0q6.53-7.47,6.52-22.78,0-14.43-6.56-21.86a21.74,21.74,0,0,0-32.7,0Q386.43,111.11,386.43,126Z"/><path class="cls-1" d="M456.31,126q0-21.6,12-32,10-8.64,24.46-8.65,16,0,26.22,10.51t10.18,29q0,15-4.5,23.63a32,32,0,0,1-13.11,13.36,38.12,38.12,0,0,1-18.79,4.76q-16.33,0-26.4-10.47T456.31,126Zm13.55,0q0,14.94,6.51,22.38a21.71,21.71,0,0,0,32.74,0q6.52-7.47,6.52-22.78,0-14.43-6.55-21.86a21.75,21.75,0,0,0-32.71,0Q469.86,111.11,469.86,126Z"/><path class="cls-1" d="M573.42,153.14l1.9,11.65a49,49,0,0,1-10,1.17q-7.17,0-11.13-2.27a12.7,12.7,0,0,1-5.57-6q-1.6-3.69-1.61-15.56V97.41h-9.67V87.15h9.67V67.89L560.16,60V87.15h13.26V97.41H560.16v45.48q0,5.64.7,7.25a5.46,5.46,0,0,0,2.27,2.56,8.7,8.7,0,0,0,4.5,1A43.34,43.34,0,0,0,573.42,153.14Z"/><path class="cls-1" d="M581,141.72l13-2.05q1.11,7.83,6.12,12t14,4.17q9.07,0,13.47-3.7a11,11,0,0,0,4.4-8.68,8,8,0,0,0-3.89-7q-2.7-1.75-13.47-4.46-14.51-3.67-20.11-6.34a19.22,19.22,0,0,1-11.39-17.83,20.15,20.15,0,0,1,2.38-9.64,21.44,21.44,0,0,1,6.49-7.36A27.22,27.22,0,0,1,600.48,87a39.89,39.89,0,0,1,11.39-1.58A45,45,0,0,1,628,88q6.91,2.64,10.22,7.14a28,28,0,0,1,4.54,12L629.82,109a14.15,14.15,0,0,0-5.09-9.38q-4.22-3.36-11.91-3.37-9.08,0-13,3t-3.88,7a7.27,7.27,0,0,0,1.61,4.61,11.61,11.61,0,0,0,5,3.52q2,.73,11.65,3.37,14,3.74,19.52,6.11a19.92,19.92,0,0,1,8.68,6.92,19.33,19.33,0,0,1,3.15,11.28,22.17,22.17,0,0,1-3.85,12.42,24.89,24.89,0,0,1-11.09,9,40.51,40.51,0,0,1-16.41,3.18q-15.16,0-23.11-6.3T581,141.72Z"/><path class="cls-1" d="M690.09,153.14,692,164.79A49,49,0,0,1,682,166q-7.18,0-11.14-2.27a12.68,12.68,0,0,1-5.56-6q-1.62-3.69-1.61-15.56V97.41h-9.67V87.15h9.67V67.89L676.84,60V87.15h13.25V97.41H676.84v45.48q0,5.64.69,7.25a5.51,5.51,0,0,0,2.27,2.56,8.74,8.74,0,0,0,4.51,1A43.35,43.35,0,0,0,690.09,153.14Z"/><path class="cls-1" d="M702.84,164.93V87.15H714.7V98.94q4.54-8.26,8.39-10.91a14.61,14.61,0,0,1,8.46-2.64,25.75,25.75,0,0,1,13.55,4.25l-4.54,12.23A18.9,18.9,0,0,0,730.89,99a12.5,12.5,0,0,0-7.76,2.6,14.08,14.08,0,0,0-4.91,7.21,51.22,51.22,0,0,0-2.2,15.38v40.72Z"/><path class="cls-1" d="M803.69,155.34a49,49,0,0,1-14.1,8.79,40.67,40.67,0,0,1-14.53,2.56q-12.82,0-19.71-6.26a20.66,20.66,0,0,1-6.88-16,21.68,21.68,0,0,1,9.41-18,32.29,32.29,0,0,1,9.48-4.32,94.14,94.14,0,0,1,11.72-2q16-1.9,23.51-4.54c0-1.81.08-2.95.08-3.44q0-8.05-3.74-11.36-5.05-4.45-15-4.46-9.3,0-13.73,3.26t-6.56,11.53l-12.89-1.76A31.86,31.86,0,0,1,756.53,96q4-5.1,11.64-7.84a52,52,0,0,1,17.65-2.75q10,0,16.19,2.35t9.15,5.89a20.77,20.77,0,0,1,4.11,9,75.48,75.48,0,0,1,.65,12.15v17.58q0,18.39.85,23.26a29.24,29.24,0,0,0,3.33,9.33H806.33A27.84,27.84,0,0,1,803.69,155.34Zm-1.1-29.44q-7.17,2.92-21.53,5-8.13,1.17-11.5,2.63a11.52,11.52,0,0,0-5.2,4.29,11.66,11.66,0,0,0,2.16,15q4,3.51,11.68,3.52A27.09,27.09,0,0,0,791.75,153a20.51,20.51,0,0,0,8.72-9.12q2.13-4.46,2.12-13.18Z"/><path class="cls-1" d="M836.36,194.74V87.15h12V97.26a29.52,29.52,0,0,1,9.6-8.9,26.3,26.3,0,0,1,13-3,30.73,30.73,0,0,1,17.58,5.13A31.47,31.47,0,0,1,900,105a52.94,52.94,0,0,1,3.88,20.47A51.9,51.9,0,0,1,899.6,147,32.57,32.57,0,0,1,870,166.69a24.86,24.86,0,0,1-11.83-2.78,27.09,27.09,0,0,1-8.61-7v37.86Zm11.94-68.26q0,15,6.08,22.2t14.72,7.17q8.79,0,15-7.43t6.26-23q0-14.86-6.11-22.26t-14.62-7.4q-8.41,0-14.9,7.87T848.3,126.48Z"/></svg>