<?xml version="1.0" encoding="utf-8"?>
<!-- Generator: Adobe Illustrator 25.4.1, SVG Export Plug-In . SVG Version: 6.00 Build 0)  -->
<svg version="1.1"
	 id="svg3476" inkscape:version="0.91 r13725" sodipodi:docname="CSS3.svg" xmlns:cc="http://creativecommons.org/ns#" xmlns:dc="http://purl.org/dc/elements/1.1/" xmlns:inkscape="http://www.inkscape.org/namespaces/inkscape" xmlns:rdf="http://www.w3.org/1999/02/22-rdf-syntax-ns#" xmlns:sodipodi="http://sodipodi.sourceforge.net/DTD/sodipodi-0.dtd" xmlns:svg="http://www.w3.org/2000/svg"
	 xmlns="http://www.w3.org/2000/svg" xmlns:xlink="http://www.w3.org/1999/xlink" x="0px" y="0px" viewBox="0 0 709.6 220.9"
	 style="enable-background:new 0 0 709.6 220.9;" xml:space="preserve">
<style type="text/css">
	.st0{fill:#AAAAAA;}
	.st1{fill:#EBEBEB;}
	.st2{fill:#FFFFFF;}
</style>
<sodipodi:namedview  bordercolor="#666666" borderopacity="1.0" fit-margin-bottom="0" fit-margin-left="0" fit-margin-right="0" fit-margin-top="0" id="base" inkscape:current-layer="layer1" inkscape:cx="181.367" inkscape:cy="256" inkscape:document-units="px" inkscape:pageopacity="0.0" inkscape:pageshadow="2" inkscape:window-height="704" inkscape:window-maximized="1" inkscape:window-width="1366" inkscape:window-x="0" inkscape:window-y="27" inkscape:zoom="0.35" pagecolor="#ffffff" showgrid="false">
	</sodipodi:namedview>
<polygon id="polygon2989" class="st0" points="194.8,0 177.1,198.8 97.3,220.9 17.7,198.8 0,0 "/>
<polygon id="polygon2991" class="st0" points="161.9,186.1 177,16.3 97.4,16.3 97.4,204 "/>
<polygon id="polygon2993" class="st1" points="40.6,90 42.8,114.4 97.4,114.4 97.4,90 "/>
<polygon id="polygon2995" class="st1" points="97.4,40.6 97.3,40.6 36.2,40.6 38.5,65 97.4,65 "/>
<polygon id="polygon2997" class="st1" points="97.4,178.7 97.4,153.3 97.3,153.4 70.1,146 68.4,126.6 55.2,126.6 43.9,126.6 
	47.3,164.9 97.3,178.7 "/>
<g>
	<path id="path2999" inkscape:connector-curvature="0" class="st0" d="M264,27.1h131.1v54.8h-76.3v54.8h76.3v54.8H264V27.1z"/>
	<path id="path3001" inkscape:connector-curvature="0" class="st0" d="M421.3,27.1h131.1v47.7h-76.3v9.5h76.3v109.6H421.3v-50h76.3
		v-9.5h-76.3V27.1z"/>
	<path id="path3003" inkscape:connector-curvature="0" class="st0" d="M578.5,27.1h131.1v47.7h-76.3v9.5h76.3v109.6H578.5v-50h76.3
		v-9.5h-76.3V27.1z"/>
</g>
<polygon id="polygon3005" class="st2" points="127.3,114.4 124.5,146 97.3,153.4 97.3,178.7 147.3,164.9 147.7,160.8 153.4,96.6 
	154,90 158.4,40.6 97.3,40.6 97.3,65 131.7,65 129.5,90 97.3,90 97.3,114.4 "/>
</svg>
