<?xml version="1.0" encoding="utf-8"?>
<!-- Generator: Adobe Illustrator 25.4.1, SVG Export Plug-In . SVG Version: 6.00 Build 0)  -->
<svg version="1.1" id="Warstwa_1" xmlns="http://www.w3.org/2000/svg" xmlns:xlink="http://www.w3.org/1999/xlink" x="0px" y="0px"
	 viewBox="0 0 765.3 213.3" style="enable-background:new 0 0 765.3 213.3;" xml:space="preserve">
<style type="text/css">
	.st0{fill:#AAAAAA;}
	.st1{fill:#FFFFFF;}
	.st2{fill:#FFFFFF;stroke:#000000;stroke-width:11;stroke-miterlimit:10;}
	.st3{opacity:0.2;}
</style>
<g>
	<g>
		<path class="st0" d="M279.8,27.8c-6.5-12.1-36.2,5.1-29,16.8C257.3,56.6,287,39.4,279.8,27.8z"/>
	</g>
</g>
<g>
	<g>
		<path class="st1" d="M275.4,30.3c-3.8-7.2-24.6,4.8-20.3,11.7C258.9,49.2,279.7,37.2,275.4,30.3z"/>
	</g>
</g>
<path class="st0" d="M254.8,36.1c0,0,2.9,8.7,11.3,8.7l2-1.4c0,0-8.9-3.7-10.8-9.3L254.8,36.1z"/>
<path class="st0" d="M261.2,30.8c0,0,2.9,7.5,11,9.4l2.3-2.1c0,0-8.9-3.7-10.8-9.3L261.2,30.8z"/>
<g>
	<path class="st1" d="M264.5,33c6.7-5.7-8-21.9-14.3-15.9C243.5,22.8,258.2,39,264.5,33z"/>
</g>
<g>
	<path class="st0" d="M250.8,30.9c-6.6-6-5.4-19.7,5.6-16.7c7.9,1.6,15.8,15,9.5,20.2l0,0C261.1,38.2,255.2,35.6,250.8,30.9z
		 M263.1,31.4c3.9-3.6-5.5-16.6-11.6-12.8C247.2,24.3,259.1,35,263.1,31.4L263.1,31.4z"/>
</g>
<g>
	<g>
		<g>
			<path class="st0" d="M194.9,186.2l-5.4-20.6l-5.1,20.6h-8.8l-9.8-32.4l8.6-0.9l5.7,22.8l4.9-22.3h8.7l5.6,22.3l4.9-22.3h8.7
				l-9.4,32.8H194.9z"/>
		</g>
		<g>
			<path class="st0" d="M229.5,169.9c-1.1-22.3,34.9-22.7,33.9-0.3C264.6,192,228.6,192.3,229.5,169.9z M246.5,160
				c-10.5,0-10.9,19.7-0.1,19.5C257,179.9,257.2,159.9,246.5,160z"/>
		</g>
		<g>
			<path class="st0" d="M283.2,186.2v-32.8c6.1,0.4,18.7-1.4,23.5,2.8c5.3,3.6,5.1,13.7-0.6,17.1l7.2,12.9h-10.2l-5.3-10.3H292v10.3
				H283.2z M301.5,164.6c0.3-5.2-6-4.3-9.5-4.3v8.7C295.5,169,301.6,169.6,301.5,164.6z"/>
		</g>
		<g>
			<path class="st0" d="M341,176.3v9.8h-8.8v-32.8h8.8v11.4l13.2-12.1l6.8,4.9L349.8,168l13.3,18.2h-11.2l-8.4-12.3L341,176.3z"/>
		</g>
		<g>
			<path class="st0" d="M407,186.2v-32.8c6.1,0.4,18.7-1.4,23.5,2.8c5.3,3.6,5.1,13.7-0.6,17.1l7.2,12.9h-10.2l-5.3-10.3h-5.8v10.3
				H407z M425.2,164.6c0.3-5.2-6-4.3-9.5-4.3v8.7C419.2,169,425.4,169.6,425.2,164.6z"/>
		</g>
		<g>
			<path class="st0" d="M479.1,179.3l0.8,6.9h-24v-32.8h23.2l0.8,6.9h-15.3v6h10.1l0.8,6.9h-10.9v6.1H479.1z"/>
		</g>
		<g>
			<path class="st0" d="M521.3,170.3l-4.4,6l-3.5,0.5l-5.3-6.5v15.9h-8.8v-32.8h6l9.9,12.5l9.1-12.5h5.8v32.8h-8.8V170.3z"/>
		</g>
		<g>
			<path class="st0" d="M549.9,169.9c-1.1-22.3,34.9-22.7,33.9-0.3C585.1,192,549,192.3,549.9,169.9z M566.9,160
				c-10.5,0-10.9,19.7-0.1,19.5C577.4,179.9,577.6,159.9,566.9,160z"/>
		</g>
		<g>
			<path class="st0" d="M600.3,153.4h28.1l0.8,6.9h-10.5v25.9h-8.8v-25.9h-9.7V153.4z"/>
		</g>
		<g>
			<path class="st0" d="M671.2,179.3l0.8,6.9h-24v-32.8h23.2l0.8,6.9h-15.3v6h10.1l0.8,6.9h-10.9v6.1H671.2z"/>
		</g>
		<g>
			<path class="st0" d="M700.1,179.3h13.9l0.8,6.9h-23.6v-32.8h8.8V179.3z"/>
		</g>
		<g>
			<path class="st0" d="M749.5,173.4v12.8h-8.8v-12.9L730.3,155l8.4-2.3l6.4,12.5l6.8-11.8h9L749.5,173.4z"/>
		</g>
	</g>
	<g>
		<path class="st0" d="M194.2,72.7h33.2l2.7,22.7h-35.9v40.8h-28.9V28.4h70.1l2.7,22.7h-43.9V72.7z"/>
	</g>
	<g>
		<rect x="249.2" y="59.2" class="st0" width="28.9" height="77.1"/>
	</g>
	<g>
		<path class="st0" d="M334.7,84.8c-4.6,1.6-8.5,3.7-11.8,6.2v45.3H294V59.4h14.5l7,9.4c6.8-4.7,17.6-9.7,25.9-9.5l5.9,23.2
			C343.4,82.4,339.2,83.2,334.7,84.8z"/>
	</g>
	<g>
		<path class="st0" d="M487.8,86.5v49.7h-28.9v-47c1.4-14.2-14.2-8.3-22.1-4.8v2.1v49.7h-28.9v-47c1.4-14.2-14.4-8.3-22.2-4.8v51.8
			h-28.9V59.2h17.2l5.1,7.9c17.5-11.1,40.3-16.5,52.6-1C455,50.7,489.1,52,487.8,86.5z"/>
	</g>
	<g>
		<path class="st0" d="M584.6,96.7c2.6,33.2-34,52.6-60.4,34.6l-4.9,4.9h-14.6V25.8l28.9-1.7v34.5C560.2,50.4,586.1,67.2,584.6,96.7
			z M554.7,96.8c1.1-12.8-9.6-23-21.1-15.7v32.6C545.9,120.4,555.4,110,554.7,96.8z"/>
	</g>
	<g>
		<path class="st0" d="M613.4,59c24.2-11.8,46.1,6.8,53.2,29.5l-42.9,18.8c11.2,11.7,29.1-0.5,37.5-10.7l15.3,14.6
			c-14,20-48.2,34.5-70.2,19.8C580.3,113.8,582.5,70.1,613.4,59z M622,80.6c-4.9,2-7.3,9.4-4.8,14.1l18.3-8
			C633.4,81.6,627.6,77.8,622,80.6z"/>
	</g>
	<g>
		<path class="st0" d="M687.6,66.8C705.9,47,733,56.4,747.9,75l-33.1,33.1c14.7,6.9,26.9-11,31-23.6l19.5,8.1
			c-5.8,23.8-32.3,49.6-58.3,44C676.7,129.8,662.8,88.3,687.6,66.8z M703.4,83.8c-3.9,3.7-3.4,11.4,0.7,14.8l14.2-14.2
			C714.4,80.6,707.7,79.1,703.4,83.8z"/>
	</g>
</g>
<g>
	<g>
		<path class="st0" d="M147.6,126.1c-1.7,97-145.9,97-147.6,0C1.7,29.2,145.9,29.2,147.6,126.1z"/>
	</g>
</g>
<g>
	<g>
		<path class="st1" d="M131.3,123.6c-0.8,45.9-69.1,45.9-69.8,0C62.2,77.7,130.5,77.7,131.3,123.6z"/>
	</g>
	<g>
		<path class="st0" d="M96.4,162.8c-51.6-0.9-51.5-77.5,0-78.5C147.9,85.3,147.9,161.9,96.4,162.8z M96.4,92.9
			c-40.2,0.7-40.2,60.5,0,61.2C136.6,153.5,136.6,93.7,96.4,92.9z"/>
	</g>
</g>
<g>
	<g>
		<polygon class="st0" points="100.9,174.9 100.9,213.3 74,188.7 		"/>
	</g>
</g>
<g>
	<g>
		<path class="st1" d="M96.4,191.5c-88,5.7-87.9-124.9,0-119.2V191.5z"/>
	</g>
	<g>
		<path class="st0" d="M100.7,195.8C0.9,203.9,1,59.9,100.7,68V195.8z M89,76.6c-74.6,1.7-71.6,112.8,3,110.6V76.6H89z"/>
	</g>
</g>
<g>
	<g>
		<path class="st1" d="M101.5,68c-0.8,46.9-70.5,46.9-71.3,0C31,21.1,100.8,21.1,101.5,68z"/>
	</g>
	<g>
		<path class="st0" d="M65.9,108c-52.5-0.9-52.5-79,0-79.9C118.4,29,118.4,107,65.9,108z M65.9,36.6c-41.2,0.7-41.2,62,0,62.7
			C107.1,98.6,107.1,37.4,65.9,36.6z"/>
	</g>
</g>
<g>
	<g>
		<path class="st2" d="M101.5,169.5"/>
	</g>
</g>
<g>
	<g>
		<path class="st1" d="M33.1,110.7c0,0,23.3,30.1,63.2,8.3"/>
	</g>
	<g>
		<path class="st0" d="M68.3,131.2c-24.4,0-38.4-17.6-38.5-17.9l6.8-5.3l-3.4,2.6l3.4-2.6c0.9,1.1,21.6,26.9,57.8,7.1l4.1,7.6
			C87.1,128.9,77,131.2,68.3,131.2z"/>
	</g>
</g>
<g>
	<g>
		<path class="st1" d="M30.4,132c0,0,33,31.4,66,8.8"/>
	</g>
	<g>
		<path class="st0" d="M71,153.2c-24.2,0-43.3-17.9-43.6-18.1l5.9-6.2c1.2,1.2,30.9,28.7,60.6,8.4l4.9,7.1
			C89.3,150.9,79.8,153.2,71,153.2z"/>
	</g>
</g>
<g>
	<g>
		<path class="st1" d="M44.4,70.1H22.6c-2.7,0-4.9-2.2-4.9-4.9c0.8-4.3-2.8-17.7,4.9-17.4c0,0,21.8,0,21.8,0c2.7,0,4.9,2.2,4.9,4.9
			C48.5,56.9,52.1,70.3,44.4,70.1z"/>
	</g>
	<g>
		<path class="st0" d="M44.4,73.8c-7.6-1.2-30.7,4.7-30.4-8.6c0.2-7-2.3-21.3,8.6-21.1c7.6,1.2,30.7-4.7,30.4,8.6
			C52.8,59.6,55.3,74,44.4,73.8z M22.6,51.4c-2.5-0.6-0.8,12.8-1.3,13.8c-1.3,2.6,22.5,0.7,23.1,1.3c2.5,0.6,0.8-12.8,1.3-13.8
			C47,50,23.1,51.9,22.6,51.4z"/>
	</g>
</g>
<g>
	<g>
		<path class="st1" d="M93,70.1H71.2c-2.7,0-4.9-2.2-4.9-4.9c0.8-4.3-2.8-17.7,4.9-17.4c0,0,21.8,0,21.8,0c2.7,0,4.9,2.2,4.9,4.9
			C97.2,56.9,100.8,70.3,93,70.1z"/>
	</g>
	<g>
		<path class="st0" d="M93,73.8c-7.6-1.2-30.7,4.7-30.4-8.6c0.2-7-2.3-21.3,8.6-21.1c7.6,1.2,30.7-4.7,30.4,8.6
			C101.5,59.6,104,74,93,73.8z M71.2,51.4c-2.5-0.6-0.8,12.8-1.3,13.8c-1.3,2.6,22.5,0.7,23.1,1.3c2.5,0.6,0.8-12.8,1.3-13.8
			C95.6,50,71.8,51.9,71.2,51.4z"/>
	</g>
</g>
<g>
	<g>
		<path class="st1" d="M49.3,57.2c0,0,8.2-7.4,17,0"/>
	</g>
	<g>
		<path class="st0" d="M63.9,60c-6-5.1-11.5-0.6-12.1,0l-4.9-5.5c3.7-3.3,13-7.6,21.8-0.1L63.9,60z"/>
	</g>
</g>
<g>
	<g>
		<path class="st0" d="M65.3,90.8c-2,0-4.2-0.3-6.5-1.1l2.3-7c9.7,3.1,13.9-5.1,14.3-6l6.7,3.1C80.1,84.1,74.4,90.8,65.3,90.8z"/>
	</g>
</g>
<g>
	<g>
		<g>
			<path class="st0" d="M85,56.5c0.1,8.1-12.6,8.1-12.5,0C72.4,48.4,85.2,48.4,85,56.5z"/>
		</g>
	</g>
	<g>
		<g>
			<path class="st1" d="M85.3,54.2c0.1,3.4-5.4,3.4-5.3,0C79.9,50.8,85.3,50.8,85.3,54.2z"/>
		</g>
	</g>
</g>
<g>
	<g>
		<g>
			<path class="st0" d="M42.7,56.5c0.1,8.1-12.6,8.1-12.5,0C30.1,48.4,42.9,48.4,42.7,56.5z"/>
		</g>
	</g>
	<g>
		<g>
			<path class="st1" d="M43,54.2c0.1,3.4-5.4,3.4-5.3,0C37.6,50.8,43,50.8,43,54.2z"/>
		</g>
	</g>
</g>
<g class="st3">
	<g>
		<path class="st0" d="M41.8,101c0,0,22,26.2,53.1,3.2V92.4c0,0-26.6,24.6-51.3,3.4L41.8,101z"/>
	</g>
</g>
<g class="st3">
	<g>
		<path class="st0" d="M102.8,91.8c0,0-2.9,51.9,21.1,54.8c0,0-15.3,12.7-26.7,8.9L98,89.5L102.8,91.8z"/>
	</g>
</g>
<g>
	<g>
		<path class="st0" d="M75,185.2c0,0,15.4,4.6,16.9-9l5.3,23.7L75,185.2z"/>
	</g>
</g>
<g>
	<g>
		<path class="st1" d="M33.9,154.6c0,0,31.7,26.6,62.5,9"/>
	</g>
	<g>
		<path class="st0" d="M73.6,174c-23,0-41.4-15.2-42.4-16.1l5.5-6.6l-2.8,3.3l2.8-3.3c0.3,0.2,29.8,24.5,57.5,8.5l4.3,7.5
			C90,172.1,81.5,174,73.6,174z"/>
	</g>
</g>
<g>
	<g>
		<path class="st1" d="M94.4,43h-57c-6.5,0.1-5.2-8.3-5.2-12.5c0-2.9,2.3-5.2,5.2-5.2h57c2.9,0,5.2,2.3,5.2,5.2
			C99.5,34.7,100.9,43.2,94.4,43z"/>
	</g>
	<g>
		<path class="st0" d="M94.4,46.1h-57c-8.4,0.1-8.8-9.4-8.3-15.6c0-4.6,3.7-8.3,8.3-8.3h57c4.6,0,8.3,3.7,8.3,8.3
			C103.2,36.8,102.9,46.3,94.4,46.1z M37.4,28.4c-3.7-0.2-1.7,7.5-2.1,9.4c0,1.2,1,2.1,2.1,2.1h57c3.7,0.2,1.7-7.5,2.1-9.4
			c0-1.2-1-2.1-2.1-2.1H37.4z"/>
	</g>
</g>
<g>
	<g>
		<line class="st1" x1="43" y1="25.3" x2="43" y2="42.1"/>
	</g>
	<g>
		<rect x="39.9" y="25.3" class="st0" width="6.1" height="16.8"/>
	</g>
</g>
<g>
	<g>
		<line class="st1" x1="54.7" y1="25.8" x2="54.7" y2="42.6"/>
	</g>
	<g>
		<rect x="51.6" y="25.8" class="st0" width="6.1" height="16.8"/>
	</g>
</g>
<g>
	<g>
		<line class="st1" x1="66.3" y1="25.8" x2="66.3" y2="42.6"/>
	</g>
	<g>
		<rect x="63.2" y="25.8" class="st0" width="6.1" height="16.8"/>
	</g>
</g>
<g>
	<g>
		<line class="st1" x1="77.8" y1="26.2" x2="77.8" y2="43"/>
	</g>
	<g>
		<rect x="74.7" y="26.2" class="st0" width="6.1" height="16.8"/>
	</g>
</g>
<g>
	<g>
		<line class="st1" x1="89.8" y1="26.2" x2="89.8" y2="43"/>
	</g>
	<g>
		<rect x="86.7" y="26.2" class="st0" width="6.1" height="16.8"/>
	</g>
</g>
<g>
	<g>
		<path class="st1" d="M38.2,24.7c0-2.1,24.4-48.7,55,0H38.2z"/>
	</g>
	<g>
		<path class="st0" d="M98.8,27.8H35.1c-0.7-6.5,8.1-21.9,23.8-27.5C72.6-4.7,88.8,9.4,98.8,27.8z M41.2,25.4
			C41.2,25.4,41.2,25.4,41.2,25.4L41.2,25.4z M43.2,21.7h44.3C72.4-1.6,53.5,3.3,43.2,21.7z"/>
	</g>
</g>
<g class="st3">
	<g>
		<polygon class="st0" points="40.3,18.1 87.7,18.1 90.5,24.7 39.2,24.7 		"/>
	</g>
</g>
<g class="st3">
	<g>
		<polygon class="st0" points="33.1,36 99.6,36 98,41.6 33.5,41.3 		"/>
	</g>
</g>
</svg>
