<?xml version="1.0" encoding="utf-8"?>
<!-- Generator: Adobe Illustrator 25.4.1, SVG Export Plug-In . SVG Version: 6.00 Build 0)  -->
<svg version="1.1" id="Layer_1" xmlns="http://www.w3.org/2000/svg" xmlns:xlink="http://www.w3.org/1999/xlink" x="0px" y="0px"
	 viewBox="0 0 1003 216.2" style="enable-background:new 0 0 1003 216.2;" xml:space="preserve">
<style type="text/css">
	.st0{fill:#AAAAAA;}
	.st1{fill:#EBEBEB;}
	.st2{fill:#FFFFFF;}
</style>
<polygon class="st0" points="34.2,194.6 16.8,0 207.5,0 190.1,194.6 112,216.2 "/>
<polygon class="st0" points="112.2,199.7 175.2,182.2 190.1,15.9 112.2,15.9 "/>
<g>
	<polygon class="st1" points="112.2,88.1 80.6,88.1 78.4,63.6 112.2,63.6 112.2,39.8 112.1,39.8 52.3,39.8 52.9,46.2 58.8,111.9 
		112.2,111.9 	"/>
	<polygon class="st1" points="112.2,150.1 112.1,150.1 85.5,142.9 83.8,123.9 70.9,123.9 59.8,123.9 63.2,161.4 112.1,174.9 
		112.2,174.9 	"/>
</g>
<g>
	<path class="st0" d="M279.8,15.6h55.6v54.9h50.8V15.6h55.6v166.2h-55.6v-55.7h-50.8v55.7h-55.6L279.8,15.6L279.8,15.6z"/>
	<path class="st0" d="M514.7,70.7h-48.9V15.6h153.4v55.1h-48.9v111.1h-55.6L514.7,70.7L514.7,70.7z"/>
	<path class="st0" d="M643.6,15.6h57.9L737.1,74l35.6-58.4h57.9v166.2h-55.3V99.4l-38.2,59.1h-1l-38.2-59.1v82.4h-54.4V15.6z"/>
	<path class="st0" d="M858.3,15.6h55.6v111.3H992v54.9H858.3V15.6z"/>
</g>
<g>
	<polygon class="st2" points="112.1,88.1 112.1,111.9 141.5,111.9 138.7,142.9 112.1,150.1 112.1,174.9 161,161.4 161.4,157.3 
		167,94.5 167.6,88.1 161.1,88.1 	"/>
	<polygon class="st2" points="112.1,39.8 112.1,54.6 112.1,63.6 112.1,63.6 169.7,63.6 169.7,63.6 169.7,63.6 170.2,58.3 
		171.3,46.2 171.9,39.8 	"/>
</g>
</svg>
